<svg width="438.951" height="97.3" viewBox="0 0 438.951 97.3" xmlns="http://www.w3.org/2000/svg">
    <g id="svgGroup" stroke-linecap="round" fill-rule="evenodd" font-size="9pt" stroke="#0b0636" stroke-width="0.15mm"
        fill="#0b0636" style="stroke:#0b0636;stroke-width:0.15mm;fill:#0b0636">
        <path
            d="M 68.501 78.6 Q 67.501 78.6 66.501 78.5 Q 65.501 78.4 64.401 78.2 A 40.132 40.132 0 0 1 55.298 75.35 A 35.823 35.823 0 0 1 52.101 73.7 Q 46.601 70.5 42.251 66.25 Q 37.901 62 34.351 57.3 A 202.278 202.278 0 0 1 30.167 51.562 A 169.018 169.018 0 0 1 27.901 48.25 A 188.211 188.211 0 0 0 25.27 44.403 Q 23.829 42.353 22.501 40.6 A 1.468 1.468 0 0 0 22.444 40.474 Q 22.27 40.136 22.061 40.292 A 0.38 0.38 0 0 0 22.051 40.3 L 21.801 40.5 Q 19.601 44.7 17.751 48.35 Q 16.226 51.358 15.347 53.382 A 41.064 41.064 0 0 0 15.001 54.2 Q 14.201 56.4 14.201 57.3 A 2.614 2.614 0 0 0 14.246 57.811 Q 14.407 58.613 15.136 58.691 A 1.541 1.541 0 0 0 15.301 58.7 A 2.484 2.484 0 0 0 16.402 58.422 Q 17.189 58.034 18.032 57.107 A 10.623 10.623 0 0 0 18.301 56.8 Q 19.401 55.5 20.351 54.35 A 5.292 5.292 0 0 1 20.696 53.968 Q 21.431 53.237 22.001 53.4 Q 22.084 53.483 22.098 53.634 A 0.703 0.703 0 0 1 22.101 53.7 A 1.013 1.013 0 0 1 22.04 54.025 Q 21.936 54.329 21.655 54.721 A 6.226 6.226 0 0 1 21.401 55.05 A 150.218 150.218 0 0 1 21.235 55.251 Q 20.689 55.913 20.601 56 Q 19.901 57 18.751 58.7 A 26.903 26.903 0 0 1 17.127 60.866 A 22.853 22.853 0 0 1 16.351 61.75 A 5.256 5.256 0 0 1 15.535 62.476 Q 14.977 62.871 14.39 63.016 A 2.862 2.862 0 0 1 13.701 63.1 A 0.978 0.978 0 0 1 13.6 63.093 Q 13.323 63.063 12.551 62.9 A 14.483 14.483 0 0 1 11.073 62.509 A 12.985 12.985 0 0 1 10.751 62.4 A 3.665 3.665 0 0 1 10.415 62.264 Q 10.082 62.108 9.926 61.928 A 0.553 0.553 0 0 1 9.801 61.7 Q 9.601 59.8 10.751 56.35 A 55.907 55.907 0 0 1 12.016 52.951 Q 12.633 51.436 13.385 49.802 A 92.988 92.988 0 0 1 13.901 48.7 Q 15.901 44.5 18.001 40.5 Q 16.401 40.1 15.701 39.8 A 2.418 2.418 0 0 1 15.044 39.135 Q 14.722 38.636 14.702 37.987 A 2.816 2.816 0 0 1 14.701 37.9 A 2.381 2.381 0 0 1 15.229 36.407 A 3.272 3.272 0 0 1 15.501 36.1 Q 16.164 35.438 17.375 35.324 A 5.627 5.627 0 0 1 17.901 35.3 Q 18.401 35.3 19.101 35.5 A 2.393 2.393 0 0 1 19.691 35.753 A 1.937 1.937 0 0 1 20.201 36.2 Q 21.901 33.2 23.251 30.7 Q 24.601 28.2 25.201 26.8 A 14.108 14.108 0 0 0 25.537 26.147 Q 25.853 25.488 25.992 24.983 A 4.141 4.141 0 0 0 26.001 24.95 A 9.379 9.379 0 0 0 26.098 24.556 Q 26.177 24.197 26.195 23.945 A 1.983 1.983 0 0 0 26.201 23.8 Q 26.201 23.2 26.001 22.8 A 4.627 4.627 0 0 1 26.212 22.017 Q 26.492 21.231 27.085 20.207 A 21.039 21.039 0 0 1 27.451 19.6 A 23.088 23.088 0 0 1 29.165 17.225 A 29.266 29.266 0 0 1 30.601 15.6 A 20.58 20.58 0 0 1 34.088 12.643 A 18.885 18.885 0 0 1 34.701 12.25 A 10.987 10.987 0 0 1 36.244 11.454 Q 37.584 10.9 38.801 10.9 A 3.125 3.125 0 0 1 39.178 10.926 Q 39.586 10.976 40.174 11.123 A 17.524 17.524 0 0 1 40.651 11.25 Q 41.901 11.6 43.051 12.3 A 3.117 3.117 0 0 1 44.137 13.376 A 3.216 3.216 0 0 1 44.501 14.3 A 1.89 1.89 0 0 1 44.601 14.891 A 1.801 1.801 0 0 1 44.601 14.9 A 0.666 0.666 0 0 1 44.593 15.006 Q 44.563 15.191 44.416 15.2 A 0.253 0.253 0 0 1 44.401 15.2 A 0.749 0.749 0 0 1 44.265 15.186 Q 44.132 15.161 43.956 15.093 A 3.256 3.256 0 0 1 43.851 15.05 Q 43.563 14.926 43.376 14.905 A 0.649 0.649 0 0 0 43.301 14.9 A 5.737 5.737 0 0 0 41.11 15.371 Q 39.397 16.078 37.478 17.846 A 22.449 22.449 0 0 0 37.051 18.25 A 44.216 44.216 0 0 0 34.013 21.535 Q 32.539 23.29 31.047 25.374 A 78.252 78.252 0 0 0 30.051 26.8 Q 26.501 32 23.401 37.6 A 32.208 32.208 0 0 1 23.867 37.697 Q 24.185 37.766 24.551 37.85 A 5.38 5.38 0 0 0 25.156 37.951 Q 25.466 37.986 25.819 37.996 A 10.096 10.096 0 0 0 26.101 38 L 26.851 38 A 2.785 2.785 0 0 0 27.261 37.968 A 3.572 3.572 0 0 0 27.601 37.9 A 84.437 84.437 0 0 0 38.992 35.833 A 93.909 93.909 0 0 0 40.651 35.4 A 67.222 67.222 0 0 0 52.19 31.146 A 61.963 61.963 0 0 0 53.101 30.7 Q 58.901 27.8 62.701 23.9 Q 65.457 20.987 66.043 17.95 A 8.688 8.688 0 0 0 66.201 16.3 A 7.595 7.595 0 0 0 64.911 12.094 A 10.31 10.31 0 0 0 64.001 10.9 Q 62.318 8.987 59.171 7.777 A 22.415 22.415 0 0 0 57.101 7.1 Q 54.301 6.3 50.751 5.9 Q 47.201 5.5 43.101 5.5 A 80.681 80.681 0 0 0 31.633 6.342 A 89.593 89.593 0 0 0 29.951 6.6 A 66.262 66.262 0 0 0 19.923 9.021 A 59.117 59.117 0 0 0 17.301 9.95 A 38.926 38.926 0 0 0 11.915 12.465 A 29.369 29.369 0 0 0 7.401 15.6 Q 3.401 19 2.601 23.7 Q 2.444 24.958 2.699 25.941 A 3.839 3.839 0 0 0 3.501 27.5 Q 4.701 28.9 6.451 29.65 A 38.016 38.016 0 0 1 7.472 30.104 Q 8.444 30.555 9.108 30.945 A 11.023 11.023 0 0 1 9.201 31 A 4.385 4.385 0 0 1 9.474 31.253 Q 9.737 31.52 9.838 31.742 A 0.625 0.625 0 0 1 9.901 32 A 0.506 0.506 0 0 1 9.817 32.298 Q 9.57 32.649 8.601 32.5 Q 7.208 32.202 5.172 31.111 A 26.971 26.971 0 0 1 5.151 31.1 A 11.445 11.445 0 0 1 1.846 28.408 A 13.224 13.224 0 0 1 1.551 28.05 Q 0.001 26.1 0.001 23.5 Q 0.001 23.1 0.051 22.7 Q 0.101 22.3 0.201 21.9 Q 0.201 21.815 0.165 21.401 A 55.963 55.963 0 0 0 0.151 21.25 A 14.333 14.333 0 0 1 0.121 20.859 Q 0.101 20.55 0.101 20.3 Q 0.701 17.2 3.151 14.45 Q 5.601 11.7 8.751 9.55 A 55.873 55.873 0 0 1 11.421 7.831 Q 12.771 7.019 14.026 6.384 A 32.781 32.781 0 0 1 14.601 6.1 Q 18.833 4.029 24.605 2.728 A 66.683 66.683 0 0 1 25.901 2.45 A 67.845 67.845 0 0 1 37.91 1.121 A 75.623 75.623 0 0 1 39.701 1.1 Q 44.101 1.1 48.451 1.7 Q 52.801 2.3 56.901 3.6 A 21.91 21.91 0 0 1 61.4 5.655 A 16.475 16.475 0 0 1 65.751 9.45 A 14.455 14.455 0 0 1 67.613 12.428 Q 68.627 14.64 68.627 16.955 A 10.704 10.704 0 0 1 68.601 17.7 Q 68.301 21.8 65.751 25.1 Q 63.201 28.4 59.251 30.85 A 46.607 46.607 0 0 1 52.376 34.34 A 53.336 53.336 0 0 1 50.551 35.05 Q 45.801 36.8 41.001 37.9 Q 37.101 38.7 32.801 39.2 A 138.764 138.764 0 0 1 27.621 39.708 A 114.252 114.252 0 0 1 24.701 39.9 Q 29.001 45.2 33.251 50.55 Q 37.501 55.9 42.351 60.6 Q 47.201 65.3 53.001 68.65 A 40.034 40.034 0 0 0 62.545 72.578 A 47.643 47.643 0 0 0 66.101 73.4 Q 67.601 73.7 69.201 73.7 Q 71.801 73.7 74.351 72.9 A 11.014 11.014 0 0 0 77.015 71.674 A 9.448 9.448 0 0 0 78.601 70.4 A 5.704 5.704 0 0 0 80.201 67.192 A 8.049 8.049 0 0 0 80.301 65.9 Q 80.301 65.4 80.251 64.9 Q 80.201 64.4 80.101 63.9 A 1.287 1.287 0 0 0 80.097 63.795 Q 80.087 63.672 80.051 63.6 A 0.482 0.482 0 0 1 80.011 63.488 A 0.408 0.408 0 0 1 80.001 63.4 Q 80.001 62.5 80.701 62.5 A 1.08 1.08 0 0 1 81.66 63.057 Q 81.793 63.269 81.888 63.561 A 3.864 3.864 0 0 1 82.001 64 A 15.985 15.985 0 0 1 82.242 65.603 A 12.514 12.514 0 0 1 82.301 66.8 A 15.919 15.919 0 0 1 82.203 68.597 A 13.208 13.208 0 0 1 82.051 69.6 Q 81.801 70.9 81.401 72 A 6.608 6.608 0 0 1 79.778 74.612 Q 78.648 75.765 76.851 76.7 A 16.786 16.786 0 0 1 71.13 78.441 A 21.203 21.203 0 0 1 68.501 78.6 Z"
            id="0" vector-effect="non-scaling-stroke" />
        <path
            d="M 82.501 61.4 Q 80.801 61.4 79.351 60.6 Q 78.133 59.928 77.444 58.269 A 8.343 8.343 0 0 1 77.201 57.6 A 3.597 3.597 0 0 1 77.194 57.579 Q 76.901 56.681 76.901 55.1 A 19.112 19.112 0 0 1 77.046 52.813 Q 77.196 51.571 77.501 50.2 A 48.149 48.149 0 0 1 77.965 48.288 Q 78.364 46.788 78.801 45.6 A 1.274 1.274 0 0 0 78.542 45.752 Q 78.006 46.139 76.951 47.35 Q 75.601 48.9 73.651 51.05 Q 71.701 53.2 69.351 55.35 A 27.481 27.481 0 0 1 66.087 57.926 A 23.533 23.533 0 0 1 64.501 58.9 A 11.787 11.787 0 0 1 62.256 59.881 A 8.881 8.881 0 0 1 59.601 60.3 A 6.173 6.173 0 0 1 57.858 60.036 Q 57.153 59.829 56.413 59.459 A 10.8 10.8 0 0 1 56.201 59.35 A 8.845 8.845 0 0 1 54.224 57.948 A 7.818 7.818 0 0 1 53.301 56.9 A 8.194 8.194 0 0 1 52.309 55.211 A 6.081 6.081 0 0 1 51.801 52.8 A 8.858 8.858 0 0 1 52.354 49.787 Q 52.813 48.514 53.651 47.2 A 26.725 26.725 0 0 1 56.236 43.809 A 34.071 34.071 0 0 1 58.451 41.55 Q 61.401 38.8 64.751 36.55 A 68.72 68.72 0 0 1 68.425 34.24 A 53.606 53.606 0 0 1 71.151 32.75 Q 74.201 31.2 76.101 30.7 A 13.902 13.902 0 0 1 78.509 30.215 A 18.306 18.306 0 0 1 80.601 30.1 A 12.297 12.297 0 0 1 82.757 30.297 A 14.299 14.299 0 0 1 83.501 30.45 A 7.272 7.272 0 0 1 84.797 30.877 A 5.45 5.45 0 0 1 86.001 31.6 Q 86.801 32 87.301 32.7 A 2.688 2.688 0 0 1 87.71 33.537 A 2.439 2.439 0 0 1 87.801 34.2 A 1.351 1.351 0 0 1 87.787 34.405 Q 87.71 34.905 87.21 34.741 A 1.325 1.325 0 0 1 87.101 34.7 Q 86.301 33.5 84.951 33.15 Q 83.601 32.8 82.201 32.8 Q 78.875 32.8 74.996 34.598 A 28.595 28.595 0 0 0 73.401 35.4 A 42.604 42.604 0 0 0 65.04 41.282 A 39.904 39.904 0 0 0 64.801 41.5 Q 63.601 42.5 61.551 44.95 Q 59.501 47.4 57.801 50.3 Q 56.554 52.427 56.222 54.285 A 7.463 7.463 0 0 0 56.101 55.6 A 4.095 4.095 0 0 0 56.361 57.073 A 3.804 3.804 0 0 0 56.801 57.9 A 1.314 1.314 0 0 0 57.744 58.569 A 1.956 1.956 0 0 0 58.101 58.6 A 3.63 3.63 0 0 0 59.042 58.461 Q 59.952 58.215 61.137 57.534 A 17.968 17.968 0 0 0 61.851 57.1 A 38.414 38.414 0 0 0 64.542 55.207 A 49.415 49.415 0 0 0 66.701 53.45 Q 69.201 51.3 71.251 49.3 Q 73.139 47.458 74.051 46.549 A 105.882 105.882 0 0 0 74.201 46.4 A 25.395 25.395 0 0 0 74.465 46.131 Q 74.889 45.695 75.652 44.882 A 316.244 316.244 0 0 0 76.151 44.35 Q 77.601 42.8 79.301 41 A 116.971 116.971 0 0 1 80.722 39.521 Q 81.592 38.631 82.351 37.9 A 19.73 19.73 0 0 1 82.824 37.458 Q 83.757 36.617 84.088 36.6 A 0.261 0.261 0 0 1 84.101 36.6 Q 84.597 36.6 85.732 36.846 A 25.735 25.735 0 0 1 85.751 36.85 Q 86.901 37.1 87.701 37.6 Q 88.446 38.065 88.064 38.791 A 1.702 1.702 0 0 1 88.001 38.9 Q 85.401 42.7 83.851 46.85 A 57.222 57.222 0 0 0 83.078 49.046 Q 82.376 51.187 82.103 52.729 A 13.325 13.325 0 0 0 82.001 53.4 A 3.473 3.473 0 0 0 81.922 53.823 A 2.713 2.713 0 0 0 81.901 54.15 L 81.901 54.9 A 8.462 8.462 0 0 0 82.008 56.31 Q 82.433 58.812 84.55 58.897 A 3.763 3.763 0 0 0 84.701 58.9 A 3.457 3.457 0 0 0 85.68 58.741 Q 86.598 58.468 87.777 57.726 A 18.104 18.104 0 0 0 88.701 57.1 A 42.593 42.593 0 0 0 91.545 54.854 A 53.976 53.976 0 0 0 93.801 52.8 A 114.022 114.022 0 0 0 96.875 49.734 A 94.536 94.536 0 0 0 98.551 47.95 Q 100.701 45.6 101.501 44.4 Q 101.702 44.199 101.902 44.133 A 0.629 0.629 0 0 1 102.101 44.1 Q 102.501 44.1 102.801 44.45 A 0.634 0.634 0 0 1 102.916 44.64 Q 103.01 44.892 102.852 45.207 A 1.399 1.399 0 0 1 102.801 45.3 A 23.692 23.692 0 0 1 101.927 46.62 Q 100.979 47.959 99.601 49.6 A 62.115 62.115 0 0 1 96.247 53.272 A 72.15 72.15 0 0 1 94.901 54.6 A 52.411 52.411 0 0 1 92.008 57.191 A 41.342 41.342 0 0 1 89.801 58.9 A 10.297 10.297 0 0 1 88.428 59.783 Q 87.564 60.252 86.501 60.65 A 11.527 11.527 0 0 1 83.251 61.374 A 10.69 10.69 0 0 1 82.501 61.4 Z"
            id="1" vector-effect="non-scaling-stroke" />
        <path
            d="M 75.501 97.1 A 9.638 9.638 0 0 0 74.52 96.769 A 10.533 10.533 0 0 0 74.451 96.75 Q 73.998 96.626 73.714 96.537 A 7.746 7.746 0 0 1 73.601 96.5 A 10.667 10.667 0 0 1 72.419 95.783 Q 71.409 95.07 70.851 94.25 Q 70.001 93 70.001 91.5 Q 70.001 89.452 71.231 87.165 A 14.7 14.7 0 0 1 71.551 86.6 Q 73.101 84 75.501 81.2 A 40.819 40.819 0 0 1 78.375 78.223 Q 79.918 76.771 81.755 75.297 A 67.214 67.214 0 0 1 82.001 75.1 Q 85.901 72 90.051 69.15 A 535.625 535.625 0 0 1 93.5 66.8 Q 95.076 65.736 96.482 64.805 A 295.691 295.691 0 0 1 97.401 64.2 Q 100.501 57.8 103.151 51.6 Q 105.801 45.4 108.001 38.7 Q 107.001 40.1 105.001 42.4 Q 103.001 44.7 101.601 46.4 Q 101.201 47 100.701 47 Q 100.101 47 100.101 46.3 A 1.479 1.479 0 0 1 100.192 45.774 A 1.329 1.329 0 0 1 100.501 45.3 A 311.805 311.805 0 0 0 104.307 40.481 A 347.171 347.171 0 0 0 105.601 38.8 Q 107.592 36.197 108.82 34.532 A 114.464 114.464 0 0 0 109.501 33.6 A 1.541 1.541 0 0 1 110.279 32.979 Q 110.739 32.8 111.401 32.8 A 5.901 5.901 0 0 1 113.632 33.252 A 7.811 7.811 0 0 1 114.801 33.85 Q 116.501 34.9 116.201 35.5 Q 113.501 41.6 110.801 47.75 Q 108.101 53.9 105.301 59.9 Q 106.556 59.224 109.397 56.963 A 107.565 107.565 0 0 0 109.601 56.8 Q 112.179 54.738 115.2 51.936 A 148.327 148.327 0 0 0 116.201 51 Q 119.801 47.6 122.901 44 Q 123.952 42.862 124.542 42.72 A 0.681 0.681 0 0 1 124.701 42.7 A 0.467 0.467 0 0 1 124.89 42.735 Q 125.23 42.884 125.022 43.672 A 3.872 3.872 0 0 1 125.001 43.75 Q 124.75 44.627 123.733 45.888 A 16.958 16.958 0 0 1 123.301 46.4 A 40.378 40.378 0 0 1 122.065 47.795 Q 120.756 49.211 118.951 50.95 A 232.78 232.78 0 0 1 114.657 54.981 A 259.398 259.398 0 0 1 113.151 56.35 Q 110.101 59.1 107.451 61.25 Q 104.801 63.4 103.301 64.2 Q 100.201 70.8 97.301 76.65 Q 95.214 80.86 93.334 83.905 A 48.814 48.814 0 0 1 91.901 86.1 A 37.534 37.534 0 0 1 89.88 88.944 A 47.498 47.498 0 0 1 88.001 91.2 A 25.014 25.014 0 0 1 84.163 94.744 A 22.571 22.571 0 0 1 83.001 95.55 Q 80.301 97.3 77.201 97.3 Q 76.801 97.3 76.401 97.25 A 10.439 10.439 0 0 1 76.004 97.192 Q 75.796 97.158 75.567 97.113 A 17.262 17.262 0 0 1 75.501 97.1 Z M 74.501 94.5 A 1.926 1.926 0 0 0 74.951 94.662 A 1.633 1.633 0 0 0 75.301 94.7 A 3.421 3.421 0 0 0 76.423 94.49 Q 77.399 94.149 78.597 93.257 A 16.576 16.576 0 0 0 79.301 92.7 Q 83.101 89.6 85.951 85.45 Q 88.801 81.3 91.101 76.75 Q 93.401 72.2 95.501 68 Q 91.601 70.9 86.651 74.85 A 115.022 115.022 0 0 0 81.008 79.645 A 93.427 93.427 0 0 0 77.801 82.7 Q 75.801 84.7 74.401 87.2 A 13.719 13.719 0 0 0 73.604 88.86 Q 73.255 89.743 73.108 90.554 A 6.422 6.422 0 0 0 73.001 91.7 A 3.771 3.771 0 0 0 73.174 92.876 A 2.909 2.909 0 0 0 74.501 94.5 Z M 120.33 20.071 A 12.706 12.706 0 0 0 122.101 20.2 A 0.551 0.551 0 0 0 122.15 20.198 Q 122.527 20.164 123.065 19.62 A 6.264 6.264 0 0 0 123.401 19.25 A 11.569 11.569 0 0 0 123.839 18.696 A 13.276 13.276 0 0 0 124.851 17.1 A 14.516 14.516 0 0 0 124.942 16.93 Q 125.35 16.151 125.46 15.694 A 1.279 1.279 0 0 0 125.501 15.4 A 5.509 5.509 0 0 1 125.642 14.189 A 7.521 7.521 0 0 1 126.001 13.05 A 6.997 6.997 0 0 0 126.06 12.897 Q 126.469 11.8 126.001 11.8 Q 125.739 11.8 124.251 12.795 A 52.632 52.632 0 0 0 123.801 13.1 A 2.824 2.824 0 0 0 123.738 13.144 Q 123.446 13.35 122.554 14.052 A 181.793 181.793 0 0 0 122.051 14.45 A 295.01 295.01 0 0 0 121.69 14.737 A 269.479 269.479 0 0 0 119.251 16.7 Q 118.154 17.594 117.948 17.893 A 0.218 0.218 0 0 0 117.901 18 Q 117.901 19.15 118.65 19.628 A 2.07 2.07 0 0 0 119.351 19.9 A 15.498 15.498 0 0 0 120.33 20.071 Z"
            id="2" vector-effect="non-scaling-stroke" />
        <path
            d="M 149.301 61.4 Q 147.601 61.4 146.151 60.6 Q 144.933 59.928 144.244 58.269 A 8.343 8.343 0 0 1 144.001 57.6 A 3.597 3.597 0 0 1 143.994 57.579 Q 143.701 56.681 143.701 55.1 A 19.112 19.112 0 0 1 143.846 52.813 Q 143.996 51.571 144.301 50.2 A 48.149 48.149 0 0 1 144.765 48.288 Q 145.164 46.788 145.601 45.6 A 1.274 1.274 0 0 0 145.342 45.752 Q 144.806 46.139 143.751 47.35 Q 142.401 48.9 140.451 51.05 Q 138.501 53.2 136.151 55.35 A 27.481 27.481 0 0 1 132.887 57.926 A 23.533 23.533 0 0 1 131.301 58.9 A 11.787 11.787 0 0 1 129.056 59.881 A 8.881 8.881 0 0 1 126.401 60.3 A 6.173 6.173 0 0 1 124.658 60.036 Q 123.953 59.829 123.213 59.459 A 10.8 10.8 0 0 1 123.001 59.35 A 8.845 8.845 0 0 1 121.024 57.948 A 7.818 7.818 0 0 1 120.101 56.9 A 8.194 8.194 0 0 1 119.109 55.211 A 6.081 6.081 0 0 1 118.601 52.8 A 8.858 8.858 0 0 1 119.154 49.787 Q 119.613 48.514 120.451 47.2 A 26.725 26.725 0 0 1 123.036 43.809 A 34.071 34.071 0 0 1 125.251 41.55 Q 128.201 38.8 131.551 36.55 A 68.72 68.72 0 0 1 135.225 34.24 A 53.606 53.606 0 0 1 137.951 32.75 Q 141.001 31.2 142.901 30.7 A 13.902 13.902 0 0 1 145.309 30.215 A 18.306 18.306 0 0 1 147.401 30.1 A 12.297 12.297 0 0 1 149.557 30.297 A 14.299 14.299 0 0 1 150.301 30.45 A 7.272 7.272 0 0 1 151.597 30.877 A 5.45 5.45 0 0 1 152.801 31.6 Q 153.601 32 154.101 32.7 A 2.688 2.688 0 0 1 154.51 33.537 A 2.439 2.439 0 0 1 154.601 34.2 A 1.351 1.351 0 0 1 154.587 34.405 Q 154.51 34.905 154.01 34.741 A 1.325 1.325 0 0 1 153.901 34.7 Q 153.101 33.5 151.751 33.15 Q 150.401 32.8 149.001 32.8 Q 145.675 32.8 141.796 34.598 A 28.595 28.595 0 0 0 140.201 35.4 A 42.604 42.604 0 0 0 131.84 41.282 A 39.904 39.904 0 0 0 131.601 41.5 Q 130.401 42.5 128.351 44.95 Q 126.301 47.4 124.601 50.3 Q 123.354 52.427 123.022 54.285 A 7.463 7.463 0 0 0 122.901 55.6 A 4.095 4.095 0 0 0 123.161 57.073 A 3.804 3.804 0 0 0 123.601 57.9 A 1.314 1.314 0 0 0 124.544 58.569 A 1.956 1.956 0 0 0 124.901 58.6 A 3.63 3.63 0 0 0 125.842 58.461 Q 126.752 58.215 127.937 57.534 A 17.968 17.968 0 0 0 128.651 57.1 A 38.414 38.414 0 0 0 131.342 55.207 A 49.415 49.415 0 0 0 133.501 53.45 Q 136.001 51.3 138.051 49.3 Q 139.939 47.458 140.851 46.549 A 105.882 105.882 0 0 0 141.001 46.4 A 25.395 25.395 0 0 0 141.265 46.131 Q 141.689 45.695 142.452 44.882 A 316.244 316.244 0 0 0 142.951 44.35 Q 144.401 42.8 146.101 41 A 116.971 116.971 0 0 1 147.522 39.521 Q 148.392 38.631 149.151 37.9 A 19.73 19.73 0 0 1 149.624 37.458 Q 150.557 36.617 150.888 36.6 A 0.261 0.261 0 0 1 150.901 36.6 Q 151.397 36.6 152.532 36.846 A 25.735 25.735 0 0 1 152.551 36.85 Q 153.701 37.1 154.501 37.6 Q 155.246 38.065 154.864 38.791 A 1.702 1.702 0 0 1 154.801 38.9 Q 152.201 42.7 150.651 46.85 A 57.222 57.222 0 0 0 149.878 49.046 Q 149.176 51.187 148.903 52.729 A 13.325 13.325 0 0 0 148.801 53.4 A 3.473 3.473 0 0 0 148.722 53.823 A 2.713 2.713 0 0 0 148.701 54.15 L 148.701 54.9 A 8.462 8.462 0 0 0 148.808 56.31 Q 149.233 58.812 151.35 58.897 A 3.763 3.763 0 0 0 151.501 58.9 A 3.457 3.457 0 0 0 152.48 58.741 Q 153.398 58.468 154.577 57.726 A 18.104 18.104 0 0 0 155.501 57.1 A 42.593 42.593 0 0 0 158.345 54.854 A 53.976 53.976 0 0 0 160.601 52.8 A 114.022 114.022 0 0 0 163.675 49.734 A 94.536 94.536 0 0 0 165.351 47.95 Q 167.501 45.6 168.301 44.4 Q 168.502 44.199 168.702 44.133 A 0.629 0.629 0 0 1 168.901 44.1 Q 169.301 44.1 169.601 44.45 A 0.634 0.634 0 0 1 169.716 44.64 Q 169.81 44.892 169.652 45.207 A 1.399 1.399 0 0 1 169.601 45.3 A 23.692 23.692 0 0 1 168.727 46.62 Q 167.779 47.959 166.401 49.6 A 62.115 62.115 0 0 1 163.047 53.272 A 72.15 72.15 0 0 1 161.701 54.6 A 52.411 52.411 0 0 1 158.808 57.191 A 41.342 41.342 0 0 1 156.601 58.9 A 10.297 10.297 0 0 1 155.228 59.783 Q 154.364 60.252 153.301 60.65 A 11.527 11.527 0 0 1 150.051 61.374 A 10.69 10.69 0 0 1 149.301 61.4 Z"
            id="3" vector-effect="non-scaling-stroke" />
        <path
            d="M 189.901 61.45 A 14.489 14.489 0 0 0 193.006 62.788 Q 196.307 63.8 200.901 63.8 A 37.791 37.791 0 0 0 205.18 63.547 A 49.005 49.005 0 0 0 210.401 62.65 Q 215.501 61.5 220.751 59.4 Q 226.001 57.3 230.751 54.4 A 56.863 56.863 0 0 0 233.607 52.539 A 47.514 47.514 0 0 0 239.101 48.1 A 21.942 21.942 0 0 0 241.039 46.006 Q 243.701 42.695 243.701 39.5 Q 243.701 36.4 241.651 33.95 A 18.206 18.206 0 0 0 239.106 31.474 A 24.724 24.724 0 0 0 236.251 29.5 A 49.645 49.645 0 0 0 234.975 28.764 A 55.59 55.59 0 0 0 229.001 25.9 Q 225.101 24.3 221.301 22.9 A 147.734 147.734 0 0 1 220.8 22.715 Q 219.062 22.067 217.518 21.441 A 87.745 87.745 0 0 1 214.601 20.2 A 16.311 16.311 0 0 1 213.345 19.558 Q 210.701 18.047 210.701 16.4 A 2.494 2.494 0 0 1 210.885 15.489 Q 211.616 13.62 215.256 11.286 A 41.09 41.09 0 0 1 217.601 9.9 Q 221.301 7.9 225.301 6.7 Q 229.301 5.5 232.701 4.95 Q 236.101 4.4 237.901 4.4 A 22.815 22.815 0 0 1 239.661 4.465 Q 240.884 4.56 241.925 4.793 A 10.341 10.341 0 0 1 244.051 5.5 A 5.514 5.514 0 0 1 245.113 6.139 A 3.116 3.116 0 0 1 246.401 8.7 A 3.577 3.577 0 0 1 246.386 9.03 Q 246.319 9.746 245.966 10.461 A 5.973 5.973 0 0 1 245.301 11.5 Q 244.201 12.9 243.101 13.85 A 17.971 17.971 0 0 0 243.043 13.9 Q 242.001 14.808 242.001 15.1 Q 242.001 15.8 242.601 15.8 A 1.03 1.03 0 0 0 242.701 15.795 Q 243.492 15.718 244.901 14.45 Q 246.401 13.1 247.201 11.6 A 16.602 16.602 0 0 0 248.059 10.049 Q 249.001 8.092 249.001 6.5 A 4.19 4.19 0 0 0 247.183 2.937 Q 245.35 1.599 241.669 1.185 A 33.033 33.033 0 0 0 238.001 1 A 24.926 24.926 0 0 0 236.144 1.075 Q 235.14 1.151 233.986 1.301 A 60.419 60.419 0 0 0 231.401 1.7 Q 227.401 2.4 223.001 3.75 A 50.886 50.886 0 0 0 222.932 3.771 A 46.535 46.535 0 0 0 214.751 7.15 A 27.836 27.836 0 0 0 211.65 9.059 A 20.797 20.797 0 0 0 208.451 11.85 A 11.025 11.025 0 0 0 207.936 12.448 A 8.368 8.368 0 0 0 206.001 17.8 A 5.852 5.852 0 0 0 206.978 21.093 A 7.492 7.492 0 0 0 208.501 22.75 A 17.738 17.738 0 0 0 209.156 23.261 Q 210.365 24.162 211.86 24.97 A 31.637 31.637 0 0 0 214.901 26.4 A 112.151 112.151 0 0 0 216.89 27.194 A 129.294 129.294 0 0 0 223.201 29.45 Q 227.601 30.9 231.501 32.5 Q 233.695 33.4 235.446 34.411 A 21.316 21.316 0 0 1 237.901 36.05 A 8.199 8.199 0 0 1 238.629 36.688 A 5.605 5.605 0 0 1 240.401 40.8 A 6.156 6.156 0 0 1 240.334 41.694 A 7.635 7.635 0 0 1 240.051 42.9 Q 239.701 44 238.901 45.2 Q 238.015 46.592 236.488 47.964 A 23.111 23.111 0 0 1 234.501 49.55 A 35.615 35.615 0 0 1 232.452 50.912 A 41.876 41.876 0 0 1 227.751 53.4 A 77.743 77.743 0 0 1 227.517 53.506 A 71.211 71.211 0 0 1 220.301 56.3 A 111.722 111.722 0 0 1 219.524 56.504 Q 218.133 56.864 215.951 57.4 Q 213.101 58.1 209.601 58.65 Q 206.101 59.2 202.701 59.2 A 32.342 32.342 0 0 1 202.476 59.199 Q 198.998 59.175 196.584 58.399 A 9.454 9.454 0 0 1 194.001 57.15 A 8.804 8.804 0 0 1 193.09 56.414 A 5.82 5.82 0 0 1 191.101 52 A 6.882 6.882 0 0 1 191.148 51.209 Q 191.258 50.257 191.628 49.238 A 12.761 12.761 0 0 1 192.451 47.45 Q 193.232 46.034 194.463 44.634 A 23.549 23.549 0 0 1 196.501 42.6 Q 199.901 39.4 204.251 37.6 Q 208.601 35.8 212.301 35.8 Q 213.503 35.8 214.017 35.505 A 0.673 0.673 0 0 0 214.401 34.9 A 0.354 0.354 0 0 0 214.25 34.616 Q 213.851 34.3 212.401 34.3 A 22.73 22.73 0 0 0 208.074 34.737 A 31.282 31.282 0 0 0 203.951 35.85 Q 199.401 37.4 195.251 40.15 A 28.268 28.268 0 0 0 193.87 41.125 A 24.078 24.078 0 0 0 188.501 46.65 Q 185.901 50.4 185.901 54.8 Q 185.901 59.1 189.901 61.45 Z"
            id="5" vector-effect="non-scaling-stroke" />
        <path
            d="M 257.101 49.1 L 256.901 49.1 Q 256.032 49.1 255.744 48.743 A 0.683 0.683 0 0 1 255.601 48.3 Q 255.601 47.823 256.33 47.801 A 2.391 2.391 0 0 1 256.401 47.8 A 8.916 8.916 0 0 0 258.111 47.47 Q 259.733 47.004 261.772 45.921 A 32.709 32.709 0 0 0 262.451 45.55 A 55.95 55.95 0 0 0 266.288 43.196 A 43.864 43.864 0 0 0 268.901 41.3 Q 270.101 40.3 271.751 38.5 A 8.281 8.281 0 0 0 272.617 37.392 Q 273.027 36.753 273.223 36.128 A 3.762 3.762 0 0 0 273.401 35 A 2.755 2.755 0 0 0 273.32 34.301 Q 273.086 33.409 272.168 33.24 A 2.578 2.578 0 0 0 271.701 33.2 A 4.45 4.45 0 0 0 270.447 33.387 A 5.567 5.567 0 0 0 269.851 33.6 Q 268.901 34 268.301 34.2 A 22.549 22.549 0 0 0 266.042 35.468 Q 264.836 36.232 263.541 37.227 A 46.729 46.729 0 0 0 261.901 38.55 Q 258.401 41.5 255.551 45.15 A 25.927 25.927 0 0 0 253.17 48.755 A 19.612 19.612 0 0 0 251.601 52.5 A 7.598 7.598 0 0 0 251.304 53.48 A 6.342 6.342 0 0 0 251.201 54.05 A 11.216 11.216 0 0 0 251.105 55.236 A 10.001 10.001 0 0 0 251.101 55.5 A 5.804 5.804 0 0 0 251.231 56.771 Q 251.409 57.566 251.834 58.139 A 3.097 3.097 0 0 0 252.651 58.9 A 6.157 6.157 0 0 0 254.934 59.776 A 8.348 8.348 0 0 0 256.401 59.9 A 16.533 16.533 0 0 0 260.926 59.245 A 20.724 20.724 0 0 0 263.201 58.45 A 35.741 35.741 0 0 0 269.588 54.984 A 39.571 39.571 0 0 0 270.001 54.7 Q 273.301 52.4 276.051 49.75 Q 278.801 47.1 280.701 44.6 A 1.389 1.389 0 0 1 280.919 44.366 A 0.918 0.918 0 0 1 281.401 44.15 A 1.372 1.372 0 0 1 281.473 44.143 Q 281.81 44.119 281.901 44.3 A 0.581 0.581 0 0 1 282.103 44.39 Q 282.301 44.534 282.301 44.85 Q 282.301 45.3 282.101 45.7 A 49.195 49.195 0 0 1 277.764 50.909 A 59.087 59.087 0 0 1 275.351 53.3 Q 271.401 57 266.651 59.45 Q 261.901 61.9 256.801 61.9 A 16.206 16.206 0 0 1 252.754 61.415 A 12.946 12.946 0 0 1 249.001 59.8 A 6.79 6.79 0 0 1 245.808 54.874 A 9.816 9.816 0 0 1 245.701 53.4 A 9.673 9.673 0 0 1 245.89 51.576 Q 246.063 50.679 246.394 49.67 A 23.752 23.752 0 0 1 247.101 47.8 Q 248.101 45.5 250.801 42.5 Q 253.501 39.5 257.101 36.65 Q 260.701 33.8 264.401 31.95 Q 268.101 30.1 271.101 30.1 A 6.981 6.981 0 0 1 272.26 30.192 A 5.588 5.588 0 0 1 273.101 30.4 A 5.196 5.196 0 0 1 274.182 30.918 A 3.481 3.481 0 0 1 275.451 32.3 Q 276.101 33.6 276.101 35 Q 276.101 36.3 275.701 37.5 A 9.772 9.772 0 0 1 275.204 38.723 A 7.72 7.72 0 0 1 274.701 39.6 A 14.687 14.687 0 0 1 272.186 42.448 A 20.013 20.013 0 0 1 269.551 44.4 A 34.448 34.448 0 0 1 264.256 47.132 A 30.811 30.811 0 0 1 262.751 47.7 A 40.913 40.913 0 0 1 260.717 48.352 Q 258.753 48.922 257.305 49.08 A 11.524 11.524 0 0 1 257.101 49.1 Z"
            id="6" vector-effect="non-scaling-stroke" />
        <path
            d="M 314.401 75.8 Q 310.701 75.8 307.351 73.15 A 25.022 25.022 0 0 1 303.78 69.659 A 33.582 33.582 0 0 1 301.201 66.15 Q 298.401 61.8 296.451 56.65 A 60.813 60.813 0 0 1 294.266 49.687 A 52.436 52.436 0 0 1 293.601 46.6 Q 290.311 51.245 287.91 55.141 A 113.596 113.596 0 0 0 287.751 55.4 A 56.228 56.228 0 0 1 286.88 56.78 Q 285.095 59.513 284.201 60 A 4.029 4.029 0 0 1 283.92 60.15 Q 283.307 60.453 281.901 61 Q 280.502 61.544 279.647 61.665 A 3.202 3.202 0 0 1 279.201 61.7 A 1.024 1.024 0 0 1 279.022 61.686 Q 278.551 61.602 278.793 61.018 A 1.756 1.756 0 0 1 278.801 61 A 4.241 4.241 0 0 0 278.897 60.788 Q 279.151 60.197 279.801 58.45 Q 280.596 56.313 281.688 53.138 A 374.253 374.253 0 0 0 281.701 53.1 A 575.669 575.669 0 0 1 283.435 48.131 A 661.784 661.784 0 0 1 284.051 46.4 Q 285.301 42.9 286.501 39.8 A 37.261 37.261 0 0 0 285.709 40.702 Q 285.014 41.519 284.201 42.55 Q 282.901 44.2 281.201 46.7 A 0.988 0.988 0 0 1 280.507 47.173 A 1.613 1.613 0 0 1 280.201 47.2 Q 279.501 47.2 279.501 46.6 A 1.303 1.303 0 0 1 279.59 46.146 Q 279.729 45.773 280.083 45.339 A 5.299 5.299 0 0 1 280.201 45.2 Q 281.601 43.5 283.201 41.3 Q 284.801 39.1 286.301 37 Q 287.643 35.121 288.505 33.883 A 145.256 145.256 0 0 0 288.701 33.6 Q 287.746 33.091 287.399 32.379 A 1.979 1.979 0 0 1 287.201 31.5 Q 287.201 30.7 287.851 30.25 A 1.282 1.282 0 0 1 288.131 30.101 Q 288.629 29.915 289.155 30.268 A 1.924 1.924 0 0 1 289.201 30.3 Q 289.477 30.438 289.705 30.481 A 1.064 1.064 0 0 0 289.901 30.5 Q 291.601 26 294.201 20.75 Q 296.801 15.5 300.201 10.75 A 40.225 40.225 0 0 1 303.969 6.197 A 31.415 31.415 0 0 1 307.551 3 A 15.406 15.406 0 0 1 311.353 0.847 A 12.613 12.613 0 0 1 315.901 0 A 11.163 11.163 0 0 1 316.662 0.027 A 12.957 12.957 0 0 1 316.951 0.05 Q 317.501 0.1 318.001 0.2 Q 318.601 0.3 319.151 0.6 A 10.85 10.85 0 0 0 319.754 0.906 A 8.641 8.641 0 0 0 320.201 1.1 A 5.012 5.012 0 0 1 321.508 2.132 Q 322.454 3.204 322.499 4.747 A 5.317 5.317 0 0 1 322.501 4.9 Q 322.501 6.461 321.749 8.285 A 13.922 13.922 0 0 1 321.501 8.85 A 28.593 28.593 0 0 1 319.45 12.508 A 32.097 32.097 0 0 1 319.051 13.1 A 61.631 61.631 0 0 1 317.347 15.453 A 49.365 49.365 0 0 1 316.201 16.9 Q 315.129 18.202 314.409 19.034 A 46.011 46.011 0 0 1 314.001 19.5 Q 309.101 24.5 303.451 28.6 Q 299.539 31.439 296.322 33.127 A 30.558 30.558 0 0 1 293.601 34.4 Q 292.001 37.8 290.601 41.35 Q 289.201 44.9 288.251 47.85 Q 287.524 50.109 287.06 51.576 A 277.676 277.676 0 0 0 286.801 52.4 Q 288.501 50.3 290.051 48.15 Q 291.601 46 293.201 43.9 Q 293.201 43.5 293.151 43.1 Q 293.101 42.7 293.101 42.3 Q 293.101 41.7 293.151 41.15 Q 293.201 40.6 293.301 40.1 A 2.792 2.792 0 0 1 293.539 39.359 A 3.668 3.668 0 0 1 293.801 38.9 Q 294.123 38.417 294.445 38.323 A 0.553 0.553 0 0 1 294.601 38.3 A 0.521 0.521 0 0 1 295.057 38.568 Q 295.205 38.8 295.27 39.231 A 4.07 4.07 0 0 1 295.301 39.5 Q 295.387 39.758 295.473 40.089 A 13.339 13.339 0 0 1 295.501 40.2 L 295.701 41 A 286.429 286.429 0 0 1 296.392 40.206 Q 297.489 38.95 298.951 37.3 Q 300.901 35.1 303.001 33.1 Q 305.101 31.1 306.801 30.3 A 6.742 6.742 0 0 1 308.376 29.734 A 5.717 5.717 0 0 1 309.601 29.6 A 4.951 4.951 0 0 1 310.6 29.695 Q 311.241 29.827 311.741 30.142 A 3.021 3.021 0 0 1 311.901 30.25 A 2.668 2.668 0 0 1 312.376 30.681 A 1.685 1.685 0 0 1 312.801 31.8 A 1.918 1.918 0 0 1 312.316 33.053 Q 311.817 33.651 310.802 34.151 A 8.33 8.33 0 0 1 310.701 34.2 Q 309.101 34.9 306.451 36.2 A 50.958 50.958 0 0 0 303.08 38.02 A 61.033 61.033 0 0 0 301.001 39.3 A 28.321 28.321 0 0 0 297.958 41.543 A 23.045 23.045 0 0 0 296.201 43.2 A 144.495 144.495 0 0 0 297.319 46.964 Q 297.898 48.815 298.469 50.436 A 76.446 76.446 0 0 0 299.151 52.3 Q 300.601 56.1 302.651 59.55 A 53.811 53.811 0 0 0 304.378 62.257 Q 305.976 64.613 308.101 67.3 Q 310.401 69.9 312.801 71.5 A 12.744 12.744 0 0 0 314.252 72.344 Q 315.023 72.722 315.736 72.911 A 5.319 5.319 0 0 0 317.101 73.1 A 6.04 6.04 0 0 0 317.908 73.05 Q 318.969 72.907 319.451 72.35 A 2.643 2.643 0 0 0 320.085 70.835 A 3.465 3.465 0 0 0 320.101 70.5 A 6.094 6.094 0 0 0 319.949 69.182 Q 319.817 68.587 319.571 67.947 A 10.781 10.781 0 0 0 319.451 67.65 Q 318.941 66.433 318.4 65.555 A 9.34 9.34 0 0 0 318.101 65.1 A 3.068 3.068 0 0 1 317.859 64.77 Q 317.601 64.359 317.601 64 A 0.315 0.315 0 0 1 317.629 63.862 Q 317.693 63.729 317.904 63.705 A 0.875 0.875 0 0 1 318.001 63.7 Q 318.901 63.7 319.901 64.5 Q 320.384 65.079 321.193 66.732 A 39.096 39.096 0 0 1 321.251 66.85 Q 322.101 68.6 322.101 69.9 Q 322.101 71.9 320.701 73.25 Q 319.301 74.6 317.501 75.2 A 14.442 14.442 0 0 1 316.272 75.554 Q 315.688 75.692 315.169 75.753 A 6.632 6.632 0 0 1 314.401 75.8 Z M 294.801 31 A 40.64 40.64 0 0 0 299.943 28.25 A 51.588 51.588 0 0 0 303.501 25.8 Q 307.901 22.5 311.701 18 A 15.373 15.373 0 0 0 311.984 17.648 Q 312.373 17.152 312.997 16.303 A 136.466 136.466 0 0 0 313.401 15.75 A 158.837 158.837 0 0 0 314.622 14.046 Q 315.261 13.143 315.958 12.135 A 257.316 257.316 0 0 0 316.051 12 A 31.559 31.559 0 0 0 317.956 8.883 A 27.52 27.52 0 0 0 318.501 7.8 A 14.507 14.507 0 0 0 319.018 6.585 Q 319.501 5.273 319.501 4.3 A 2.598 2.598 0 0 0 319.454 3.788 Q 319.333 3.188 318.901 2.9 Q 318.653 2.652 318.198 2.609 A 2.11 2.11 0 0 0 318.001 2.6 A 3.774 3.774 0 0 0 316.745 2.834 Q 315.695 3.205 314.473 4.163 A 14.025 14.025 0 0 0 314.301 4.3 Q 307.601 9.5 303.151 15.95 A 85.174 85.174 0 0 0 298.578 23.41 A 112.764 112.764 0 0 0 294.801 31 Z"
            id="7" vector-effect="non-scaling-stroke" />
        <path
            d="M 314.801 61.7 Q 314.001 61.7 314.401 61 A 35.232 35.232 0 0 1 314.499 60.712 Q 314.76 59.95 315.451 58 A 4130.003 4130.003 0 0 0 316.138 56.059 Q 316.444 55.192 316.785 54.227 A 8133.234 8133.234 0 0 0 317.501 52.2 Q 318.701 48.8 320.001 45.25 A 351.723 351.723 0 0 1 321.176 42.087 Q 321.737 40.6 322.254 39.275 A 210.812 210.812 0 0 1 322.401 38.9 Q 321.865 39.589 320.89 40.747 A 162.312 162.312 0 0 1 320.251 41.5 Q 318.801 43.2 317.201 45.1 A 62.911 62.911 0 0 1 315.745 46.771 Q 314.945 47.656 314.201 48.4 A 3.984 3.984 0 0 1 314.096 48.502 Q 313.941 48.645 313.856 48.685 A 0.138 0.138 0 0 1 313.802 48.7 Q 313.535 48.7 313.505 48.227 A 2.02 2.02 0 0 1 313.501 48.1 Q 313.501 46.9 314.101 45.9 Q 316.301 43.1 318.351 40.65 Q 320.401 38.2 322.101 36 Q 321.43 35.597 321.209 35.059 A 1.459 1.459 0 0 1 321.101 34.5 A 2.015 2.015 0 0 1 321.17 33.946 Q 321.348 33.325 321.983 33.16 A 2.063 2.063 0 0 1 322.501 33.1 A 2.902 2.902 0 0 1 322.815 33.116 Q 323.185 33.156 323.401 33.3 A 0.451 0.451 0 0 0 323.462 33.352 Q 323.532 33.4 323.601 33.4 Q 323.68 33.4 323.759 33.525 A 0.861 0.861 0 0 1 323.801 33.6 A 19.935 19.935 0 0 0 324.26 32.93 Q 324.474 32.604 324.65 32.302 A 7.643 7.643 0 0 0 324.651 32.3 Q 325.001 31.7 325.301 31 A 32.817 32.817 0 0 1 325.535 30.487 Q 325.886 29.733 326.53 28.412 A 363.541 363.541 0 0 1 326.951 27.55 A 121.023 121.023 0 0 1 327.98 25.504 Q 328.447 24.596 328.977 23.595 A 234.034 234.034 0 0 1 330.101 21.5 A 97.48 97.48 0 0 1 332.691 17.027 A 116.224 116.224 0 0 1 334.451 14.25 Q 336.901 10.5 339.751 7.25 A 33.127 33.127 0 0 1 342.836 4.15 A 25.632 25.632 0 0 1 345.651 2 A 12.749 12.749 0 0 1 348.641 0.532 A 10.336 10.336 0 0 1 351.901 0 Q 352.301 0 352.701 0.05 Q 353.101 0.1 353.501 0.2 Q 356.001 0.7 357.001 1.95 A 4.553 4.553 0 0 1 358 4.768 A 5.692 5.692 0 0 1 358.001 4.9 A 7.276 7.276 0 0 1 357.843 6.375 A 9.471 9.471 0 0 1 357.551 7.45 A 12.569 12.569 0 0 1 356.496 9.774 A 14.127 14.127 0 0 1 356.301 10.1 A 34.039 34.039 0 0 1 353.725 13.943 A 44.981 44.981 0 0 1 351.001 17.15 Q 347.701 20.7 343.651 24.15 Q 339.601 27.6 335.551 30.85 Q 331.501 34.1 328.001 37 A 107.661 107.661 0 0 0 326.356 40.663 Q 325.579 42.487 324.971 44.135 A 56.854 56.854 0 0 0 324.301 46.05 Q 323.001 50 322.301 52.4 A 70.749 70.749 0 0 1 322.92 51.625 Q 323.629 50.748 324.63 49.553 A 301.912 301.912 0 0 1 325.601 48.4 Q 327.801 45.8 330.601 42.8 Q 333.401 39.8 336.401 37.05 A 52.926 52.926 0 0 1 339.148 34.692 Q 340.667 33.48 342.101 32.55 Q 344.591 30.936 346.4 30.811 A 4.341 4.341 0 0 1 346.701 30.8 A 3.307 3.307 0 0 1 347.665 30.928 Q 348.725 31.252 349.003 32.39 A 3.852 3.852 0 0 1 349.101 33.3 Q 349.101 35.7 347.401 38.6 A 319.768 319.768 0 0 0 346.589 39.994 Q 345.435 41.984 344.614 43.476 A 103.059 103.059 0 0 0 344.601 43.5 A 47.141 47.141 0 0 0 343.132 46.856 A 37.853 37.853 0 0 0 342.351 49.05 A 38.875 38.875 0 0 0 341.883 50.613 Q 341.439 52.231 341.301 53.4 A 3.473 3.473 0 0 0 341.222 53.823 A 2.713 2.713 0 0 0 341.201 54.15 L 341.201 54.9 A 8.462 8.462 0 0 0 341.308 56.31 Q 341.733 58.812 343.85 58.897 A 3.763 3.763 0 0 0 344.001 58.9 A 3.457 3.457 0 0 0 344.98 58.741 Q 345.898 58.468 347.077 57.726 A 18.104 18.104 0 0 0 348.001 57.1 A 42.593 42.593 0 0 0 350.845 54.854 A 53.976 53.976 0 0 0 353.101 52.8 A 114.022 114.022 0 0 0 356.175 49.734 A 94.536 94.536 0 0 0 357.851 47.95 Q 360.001 45.6 360.801 44.4 A 1.045 1.045 0 0 1 361.11 44.182 A 0.94 0.94 0 0 1 361.501 44.1 A 0.843 0.843 0 0 1 361.752 44.135 A 0.637 0.637 0 0 1 362.101 44.4 Q 362.282 44.672 362.135 45.108 A 1.789 1.789 0 0 1 362.101 45.2 A 20.148 20.148 0 0 1 361.369 46.346 Q 360.506 47.607 359.19 49.219 A 68.706 68.706 0 0 1 359.001 49.45 A 62.993 62.993 0 0 1 355.608 53.235 A 72.945 72.945 0 0 1 354.301 54.55 Q 351.701 57.1 349.201 58.9 A 9.852 9.852 0 0 1 347.92 59.727 Q 347.004 60.228 345.851 60.65 Q 344.389 61.185 342.952 61.338 A 10.836 10.836 0 0 1 341.801 61.4 A 6.471 6.471 0 0 1 338.842 60.673 A 7.586 7.586 0 0 1 338.701 60.6 Q 337.399 59.905 336.7 58.156 A 8.184 8.184 0 0 1 336.501 57.6 A 3.597 3.597 0 0 1 336.494 57.579 Q 336.201 56.681 336.201 55.1 L 336.201 54.05 A 6.722 6.722 0 0 1 336.255 53.215 A 7.842 7.842 0 0 1 336.301 52.9 A 18.495 18.495 0 0 1 337.107 49.401 A 25.298 25.298 0 0 1 338.451 46.15 A 251.039 251.039 0 0 1 340.113 42.837 Q 340.913 41.272 341.653 39.889 A 152.835 152.835 0 0 1 341.701 39.8 Q 342.007 39.188 342.226 38.692 A 15.606 15.606 0 0 0 342.351 38.4 A 4.461 4.461 0 0 0 342.483 38.045 Q 342.597 37.687 342.601 37.418 A 1.301 1.301 0 0 0 342.601 37.4 A 1.33 1.33 0 0 0 342.57 37.098 Q 342.474 36.686 342.079 36.615 A 1.002 1.002 0 0 0 341.901 36.6 A 1.705 1.705 0 0 0 341.48 36.662 Q 340.808 36.836 339.701 37.5 A 14.429 14.429 0 0 0 338.778 38.109 Q 337.498 39.019 335.701 40.6 A 29.335 29.335 0 0 0 333.764 42.445 Q 332.448 43.811 331.051 45.55 Q 328.601 48.6 326.251 51.8 Q 323.901 55 322.151 57.3 A 42.668 42.668 0 0 1 321.532 58.096 Q 320.561 59.311 320 59.783 A 2.091 2.091 0 0 1 319.701 60 A 4.029 4.029 0 0 1 319.42 60.15 Q 318.807 60.453 317.401 61 Q 315.601 61.7 314.801 61.7 Z M 329.901 32.5 A 76.455 76.455 0 0 0 333.535 29.879 Q 335.352 28.491 337.293 26.862 A 129.652 129.652 0 0 0 338.601 25.75 Q 343.301 21.7 347.451 17.05 Q 351.601 12.4 353.801 8.2 A 15.703 15.703 0 0 0 354.381 6.97 Q 354.923 5.667 354.991 4.679 A 4.037 4.037 0 0 0 355.001 4.4 A 2.805 2.805 0 0 0 354.934 3.758 Q 354.685 2.7 353.501 2.7 Q 352.801 2.7 351.901 3.05 Q 351.289 3.288 350.539 3.78 A 14.344 14.344 0 0 0 349.801 4.3 Q 343.101 9.5 338.501 16.65 Q 333.901 23.8 329.901 32.5 Z"
            id="8" vector-effect="non-scaling-stroke" />
        <path
            d="M 387.401 61.4 Q 385.701 61.4 384.251 60.6 Q 383.033 59.928 382.344 58.269 A 8.343 8.343 0 0 1 382.101 57.6 A 3.597 3.597 0 0 1 382.094 57.579 Q 381.801 56.681 381.801 55.1 A 19.112 19.112 0 0 1 381.946 52.813 Q 382.096 51.571 382.401 50.2 A 48.149 48.149 0 0 1 382.865 48.288 Q 383.264 46.788 383.701 45.6 A 1.274 1.274 0 0 0 383.442 45.752 Q 382.906 46.139 381.851 47.35 Q 380.501 48.9 378.551 51.05 Q 376.601 53.2 374.251 55.35 A 27.481 27.481 0 0 1 370.987 57.926 A 23.533 23.533 0 0 1 369.401 58.9 A 11.787 11.787 0 0 1 367.156 59.881 A 8.881 8.881 0 0 1 364.501 60.3 A 6.173 6.173 0 0 1 362.758 60.036 Q 362.053 59.829 361.313 59.459 A 10.8 10.8 0 0 1 361.101 59.35 A 8.845 8.845 0 0 1 359.124 57.948 A 7.818 7.818 0 0 1 358.201 56.9 A 8.194 8.194 0 0 1 357.209 55.211 A 6.081 6.081 0 0 1 356.701 52.8 A 8.858 8.858 0 0 1 357.254 49.787 Q 357.713 48.514 358.551 47.2 A 26.725 26.725 0 0 1 361.136 43.809 A 34.071 34.071 0 0 1 363.351 41.55 Q 366.301 38.8 369.651 36.55 A 68.72 68.72 0 0 1 373.325 34.24 A 53.606 53.606 0 0 1 376.051 32.75 Q 379.101 31.2 381.001 30.7 A 13.902 13.902 0 0 1 383.409 30.215 A 18.306 18.306 0 0 1 385.501 30.1 A 12.297 12.297 0 0 1 387.657 30.297 A 14.299 14.299 0 0 1 388.401 30.45 A 7.272 7.272 0 0 1 389.697 30.877 A 5.45 5.45 0 0 1 390.901 31.6 Q 391.701 32 392.201 32.7 A 2.688 2.688 0 0 1 392.61 33.537 A 2.439 2.439 0 0 1 392.701 34.2 A 1.351 1.351 0 0 1 392.687 34.405 Q 392.61 34.905 392.11 34.741 A 1.325 1.325 0 0 1 392.001 34.7 Q 391.201 33.5 389.851 33.15 Q 388.501 32.8 387.101 32.8 Q 383.775 32.8 379.896 34.598 A 28.595 28.595 0 0 0 378.301 35.4 A 42.604 42.604 0 0 0 369.94 41.282 A 39.904 39.904 0 0 0 369.701 41.5 Q 368.501 42.5 366.451 44.95 Q 364.401 47.4 362.701 50.3 Q 361.454 52.427 361.122 54.285 A 7.463 7.463 0 0 0 361.001 55.6 A 4.095 4.095 0 0 0 361.261 57.073 A 3.804 3.804 0 0 0 361.701 57.9 A 1.314 1.314 0 0 0 362.644 58.569 A 1.956 1.956 0 0 0 363.001 58.6 A 3.63 3.63 0 0 0 363.942 58.461 Q 364.852 58.215 366.037 57.534 A 17.968 17.968 0 0 0 366.751 57.1 A 38.414 38.414 0 0 0 369.442 55.207 A 49.415 49.415 0 0 0 371.601 53.45 Q 374.101 51.3 376.151 49.3 Q 378.039 47.458 378.951 46.549 A 105.882 105.882 0 0 0 379.101 46.4 A 25.395 25.395 0 0 0 379.365 46.131 Q 379.789 45.695 380.552 44.882 A 316.244 316.244 0 0 0 381.051 44.35 Q 382.501 42.8 384.201 41 A 116.971 116.971 0 0 1 385.622 39.521 Q 386.492 38.631 387.251 37.9 A 19.73 19.73 0 0 1 387.724 37.458 Q 388.657 36.617 388.988 36.6 A 0.261 0.261 0 0 1 389.001 36.6 Q 389.497 36.6 390.632 36.846 A 25.735 25.735 0 0 1 390.651 36.85 Q 391.801 37.1 392.601 37.6 Q 393.346 38.065 392.964 38.791 A 1.702 1.702 0 0 1 392.901 38.9 Q 390.301 42.7 388.751 46.85 A 57.222 57.222 0 0 0 387.978 49.046 Q 387.276 51.187 387.003 52.729 A 13.325 13.325 0 0 0 386.901 53.4 A 3.473 3.473 0 0 0 386.822 53.823 A 2.713 2.713 0 0 0 386.801 54.15 L 386.801 54.9 A 8.462 8.462 0 0 0 386.908 56.31 Q 387.333 58.812 389.45 58.897 A 3.763 3.763 0 0 0 389.601 58.9 A 3.457 3.457 0 0 0 390.58 58.741 Q 391.498 58.468 392.677 57.726 A 18.104 18.104 0 0 0 393.601 57.1 A 42.593 42.593 0 0 0 396.445 54.854 A 53.976 53.976 0 0 0 398.701 52.8 A 114.022 114.022 0 0 0 401.775 49.734 A 94.536 94.536 0 0 0 403.451 47.95 Q 405.601 45.6 406.401 44.4 Q 406.602 44.199 406.802 44.133 A 0.629 0.629 0 0 1 407.001 44.1 Q 407.401 44.1 407.701 44.45 A 0.634 0.634 0 0 1 407.816 44.64 Q 407.91 44.892 407.752 45.207 A 1.399 1.399 0 0 1 407.701 45.3 A 23.692 23.692 0 0 1 406.827 46.62 Q 405.879 47.959 404.501 49.6 A 62.115 62.115 0 0 1 401.147 53.272 A 72.15 72.15 0 0 1 399.801 54.6 A 52.411 52.411 0 0 1 396.908 57.191 A 41.342 41.342 0 0 1 394.701 58.9 A 10.297 10.297 0 0 1 393.328 59.783 Q 392.464 60.252 391.401 60.65 A 11.527 11.527 0 0 1 388.151 61.374 A 10.69 10.69 0 0 1 387.401 61.4 Z"
            id="9" vector-effect="non-scaling-stroke" />
        <path
            d="M 416.354 61.401 A 6.551 6.551 0 0 0 418.001 61.6 A 10.529 10.529 0 0 0 420.097 61.381 A 13.964 13.964 0 0 0 422.251 60.75 A 21.02 21.02 0 0 0 423.41 60.274 Q 424.857 59.627 425.801 58.9 A 41.342 41.342 0 0 0 428.008 57.191 A 52.411 52.411 0 0 0 430.901 54.6 A 65.75 65.75 0 0 0 432.17 53.347 A 57.567 57.567 0 0 0 435.601 49.55 A 91.828 91.828 0 0 0 435.785 49.326 Q 437.75 46.925 438.801 45.3 A 1.399 1.399 0 0 0 438.852 45.207 Q 439.01 44.892 438.916 44.64 A 0.634 0.634 0 0 0 438.801 44.45 Q 438.501 44.1 438.101 44.1 A 0.942 0.942 0 0 0 437.969 44.109 A 0.646 0.646 0 0 0 437.501 44.4 A 17.167 17.167 0 0 1 437.468 44.444 Q 436.563 45.643 434.501 47.95 A 69.742 69.742 0 0 1 432.856 49.727 A 84.229 84.229 0 0 1 429.801 52.75 A 51.11 51.11 0 0 1 427.476 54.816 A 38.972 38.972 0 0 1 424.751 56.9 Q 423.143 58.016 421.858 58.399 A 4.41 4.41 0 0 1 420.601 58.6 A 2.665 2.665 0 0 1 420.301 58.584 Q 419.055 58.443 418.779 57.076 A 4.449 4.449 0 0 1 418.701 56.2 Q 418.701 55 419.501 52.6 A 18.225 18.225 0 0 1 419.866 51.645 Q 420.761 49.476 422.701 46 Q 425.101 41.7 428.501 37.8 A 58.493 58.493 0 0 0 428.698 37.575 Q 429.382 36.793 429.968 36.064 A 35.164 35.164 0 0 0 431.051 34.65 A 10.122 10.122 0 0 0 431.236 34.385 Q 432.101 33.107 432.101 32.2 A 1.143 1.143 0 0 0 431.605 31.228 Q 430.881 30.7 429.101 30.7 Q 428.101 30.7 427.151 30.75 Q 426.201 30.8 425.201 30.8 Q 423.301 30.8 421.501 30.7 L 417.901 30.5 Q 418.801 29.1 419.851 27.4 Q 420.901 25.7 421.801 24.3 Q 422.204 23.561 422.336 23.002 A 2.192 2.192 0 0 0 422.401 22.5 A 1.413 1.413 0 0 0 422.388 22.303 A 0.969 0.969 0 0 0 421.951 21.6 Q 421.501 21.3 421.001 21.3 A 2.439 2.439 0 0 0 420.338 21.391 A 2.688 2.688 0 0 0 419.501 21.8 A 23.777 23.777 0 0 0 419.239 22.104 Q 418.59 22.872 417.601 24.15 Q 416.401 25.7 415.001 27.1 Q 413.701 28.4 412.201 29.2 A 22.133 22.133 0 0 1 412.107 29.25 Q 411.406 29.62 410.748 29.901 A 13.556 13.556 0 0 1 409.401 30.4 A 0.833 0.833 0 0 0 409.35 30.412 Q 408.901 30.531 408.901 31.1 A 0.838 0.838 0 0 0 408.945 31.365 Q 409.034 31.633 409.301 31.9 A 1.855 1.855 0 0 0 409.399 31.991 Q 409.61 32.173 409.891 32.309 A 3.199 3.199 0 0 0 410.401 32.5 Q 410.814 32.569 411.415 32.614 A 23.652 23.652 0 0 0 412.001 32.65 A 66.891 66.891 0 0 0 412.442 32.671 Q 413.118 32.7 413.501 32.7 Q 409.601 40.2 404.201 46.8 Q 403.601 47.4 403.601 48 Q 403.601 48.466 403.964 48.57 A 0.864 0.864 0 0 0 404.201 48.6 Q 404.578 48.6 405.069 48.202 A 4.34 4.34 0 0 0 405.401 47.9 Q 408.401 44.2 411.051 40.35 Q 413.701 36.5 416.501 32.7 Q 417.601 32.7 418.651 32.85 Q 419.701 33 420.901 33.2 Q 423.001 33.5 423.801 34.25 A 3.739 3.739 0 0 1 423.995 34.445 Q 424.226 34.696 424.369 34.952 A 1.722 1.722 0 0 1 424.601 35.8 Q 424.601 36.633 424.17 37.466 A 5.565 5.565 0 0 1 423.551 38.4 Q 422.501 39.7 421.701 40.5 Q 420.201 42.2 418.101 44.65 Q 416.001 47.1 414.451 49.95 A 14.195 14.195 0 0 0 414.088 50.665 A 11.895 11.895 0 0 0 412.901 55.8 Q 412.901 56.9 413.201 58 A 7.359 7.359 0 0 0 413.42 58.751 Q 413.628 59.336 413.915 59.785 A 3.178 3.178 0 0 0 415.001 60.85 A 5.405 5.405 0 0 0 416.354 61.401 Z"
            id="10" vector-effect="non-scaling-stroke" />
    </g>
</svg>