<?xml version="1.0" encoding="utf-8"?>
<svg viewBox="0 0 64 64" classname="fill-zinc-700 stroke-zinc-500 dark:fill-zinc-300 dark:stroke-zinc-200 "
  xmlns="http://www.w3.org/2000/svg" xmlns:bx="https://boxy-svg.com">
  <defs>
    <bx:grid x="2" y="2" width="2" height="2" />
  </defs>
  <path
    d="M 9.924 34.018 C 9.924 34.018 11.053 37.483 16.198 38.018 L 20.38 38.018 C 25.182 37.895 26.4 34.365 26.4 34.365 L 26.551 22.628 C 26.551 22.628 26.654 18.018 28.746 16.556 C 30.837 14.018 35.019 14.018 35.019 14.018 L 49.658 14.018 C 49.658 14.018 53.759 13.546 53.841 10.018 L 53.841 6.018 C 53.941 1.323 49.658 2.018 49.658 2.018 L 30.082 2.078 C 26.537 2.21 24.332 6.196 24.332 6.196 C 23.022 1.749 19.942 2.119 19.942 2.119 L 14.297 2.078 C 10.369 2.648 9.924 6.018 9.924 6.018 L 9.924 34.018 Z M 34 34 C 33.931 34.304 35.655 47.169 20 46 C 20 46 14.488 46.134 11.049 46 C 8.958 44 11.049 42 11.049 42 L 20 42 C 19.92 42 31.273 44 30 34 L 29.871 28 C 29.871 17.04 40.327 18 40.327 18 L 52.875 18 C 52.875 18 54.966 20 52.875 22 L 40.327 22 C 40.327 22 34.053 22 34.053 28 L 34 34 Z M 14.107 50.018 C 14.107 50.018 9.924 50.018 9.924 54.018 L 9.924 58.018 C 9.924 62.018 14.107 62.018 14.107 62.018 L 28 62 C 54 62 54 40 54 40 L 53.961 29.721 C 53.961 29.721 53.535 26.074 49.658 26.018 C 49.658 26.018 44.794 25.989 42 26 C 38.356 26.118 38 30 38 30 C 38 30 38.006 28.282 38 40 C 38 40 36.808 49.469 28 50 L 14.107 50.018 Z"
    style="" />
</svg>