<?xml version="1.0" encoding="utf-8"?>
<svg viewBox="-60 -32 64 64" width="64px" height="64px" xmlns="http://www.w3.org/2000/svg" xmlns:bx="https://boxy-svg.com">
  <defs>
    <bx:grid x="0" y="0" width="2" height="2"/>
  </defs>
  <g>
    <g/>
  </g>
  <path style="stroke: rgb(31, 19, 19); fill: none;" d="M -50 2 L -50 -26 C -50 -26 -49.574 -29.37 -45.818 -29.94 L -40.419 -29.899 C -40.419 -29.899 -37.474 -30.269 -36.221 -25.822 C -36.221 -25.822 -34.112 -29.808 -30.722 -29.94 L -12 -30 C -12 -30 -7.904 -30.695 -8 -26 L -8 -22 C -8.078 -18.472 -12 -18 -12 -18 L -26 -18 C -26 -18 -29.351 -17.106 -31.831 -15.362 C -34.291 -14.085 -34.099 -9.39 -34.099 -9.39 L -34.243 2.347 C -34.243 2.347 -35.408 5.877 -40 6 L -44 6 C -48.92 5.465 -50 2 -50 2 Z"/>
  <path style="stroke: rgb(31, 19, 19); fill: none;" d="M -44 18 L -26 18 C -21.749 16.3 -22 12 -22 12 C -21.994 0.282 -22 -2 -22 -2 C -22 -2 -21.485 -5.882 -18 -6 C -15.328 -6.011 -12 -6 -12 -6 C -8.293 -5.944 -7.885 -2.297 -7.885 -2.297 L -7.885 5.785 L -7.873 11.765 L -7.863 11.823 C -7.863 11.823 -7.372 19.154 -12 24 C -16.955 29.677 -26 30 -26 30 L -44 30 C -44 30 -48 30 -48 26 L -48 22 C -48 18 -44 18 -44 18 Z"/>
  <path style="stroke: rgb(0, 0, 0); fill: none;" d="M -50.01 11.654 L -33.498 11.737 C -30.748 11.737 -27.998 10.149 -27.998 7.042 L -27.998 -7.042 C -27.998 -9.995 -27.278 -11.737 -22.499 -11.737 L -8 -12"/>
</svg>